<?xml version="1.0" encoding="UTF-8" standalone="no"?>
<!DOCTYPE svg PUBLIC "-//W3C//DTD SVG 20010904//EN"
              "http://www.w3.org/TR/2001/REC-SVG-20010904/DTD/svg10.dtd">

<svg xmlns="http://www.w3.org/2000/svg"
     width="1in" height="1in"
     viewBox="0 0 300 300">
  <path id="Sélection"
        fill="none" stroke="black" stroke-width="1"
        d="M 0.00,0.00
           C 0.00,0.00 300.00,0.00 300.00,0.00
             300.00,0.00 300.00,300.00 300.00,300.00
             300.00,300.00 0.00,300.00 0.00,300.00
             0.00,300.00 0.00,0.00 0.00,0.00 Z
           M 132.00,3.28
           C 132.00,3.28 108.00,5.16 108.00,5.16
             108.00,5.16 90.00,8.20 90.00,8.20
             60.91,13.98 19.42,29.68 19.00,65.00
             19.00,65.00 19.00,72.00 19.00,72.00
             19.00,72.00 19.91,82.00 19.91,82.00
             23.51,133.51 41.61,181.18 73.42,222.00
             83.01,234.30 88.17,239.17 99.00,250.00
             110.35,261.34 126.88,274.55 141.00,282.23
             145.87,284.88 153.34,289.35 159.00,288.63
             167.34,287.58 179.70,277.55 186.00,272.13
             205.00,255.80 220.91,236.34 235.42,216.00
             241.05,208.11 248.12,196.55 252.77,188.00
             252.77,188.00 263.99,165.00 263.99,165.00
             277.70,132.04 284.34,96.18 270.80,62.00
             264.69,46.58 258.08,37.33 244.00,28.08
             227.05,16.93 204.91,10.43 185.00,7.08
             172.26,4.94 144.37,2.13 132.00,3.28 Z" />
</svg>
