    <svg width="320" height="300" viewBox="0 0 320 300" fill="none" xmlns="http://www.w3.org/2000/svg">
    <rect width="320" height="300" fill="#E5E5E5"/>
    <g id="Intersect">
        <mask id="path-1-inside-1_0_1" fill="white">
            <path fill-rule="evenodd" clip-rule="evenodd" d="M0 88.704C-0.000655656 137.268 26.4734 209.875 26.4734 209.875C26.4734 209.875 56.9369 297.94 122.49 299.933C190.312 301.995 227.287 256.277 255.897 220.061C284.506 183.845 351.371 79.7305 302.83 48.1327C260.77 20.754 211.712 0.00101972 151.263 0C151.26 0 151.257 0 151.254 0C141.941 0.000157089 132.359 0.4928 122.49 1.52957C48.5529 9.29678 28.6232 20.2128 6.44248 57.1595C1.82763 64.8465 0.000172252 75.9455 0 88.704Z"/>
        </mask>
    </g>
</svg>
